<svg width="64" height="64" viewBox="0 0 64 64" fill="none" xmlns="http://www.w3.org/2000/svg">
  <!-- Favicon - Pin Icon Only -->

  <defs>
    <!-- Emerald gradient for pin -->
    <linearGradient id="pinGrad" x1="0%" y1="0%" x2="0%" y2="100%">
      <stop offset="0%" stop-color="#34d399"/>
      <stop offset="50%" stop-color="#10b981"/>
      <stop offset="100%" stop-color="#059669"/>
    </linearGradient>

    <!-- Bar gradients -->
    <linearGradient id="barGrad1" x1="0%" y1="100%" x2="0%" y2="0%">
      <stop offset="0%" stop-color="#047857"/>
      <stop offset="100%" stop-color="#059669"/>
    </linearGradient>
    <linearGradient id="barGrad2" x1="0%" y1="100%" x2="0%" y2="0%">
      <stop offset="0%" stop-color="#059669"/>
      <stop offset="100%" stop-color="#10b981"/>
    </linearGradient>
    <linearGradient id="barGrad3" x1="0%" y1="100%" x2="0%" y2="0%">
      <stop offset="0%" stop-color="#047857"/>
      <stop offset="100%" stop-color="#059669"/>
    </linearGradient>
  </defs>

  <!-- Dark background -->
  <rect width="64" height="64" fill="#0a0a0a" rx="8"/>

  <!-- Location Pin centered -->
  <g transform="translate(32, 32)">
    <path d="M0 -20C-10 -20 -18 -12 -18 -2C-18 2 -16 6 -12 9.5L0 24L12 9.5C16 6 18 2 18 -2C18 -12 10 -20 0 -20Z" fill="url(#pinGrad)"/>
    <path d="M0 -20C-10 -20 -18 -12 -18 -2C-18 2 -16 6 -12 9.5L0 24L12 9.5C16 6 18 2 18 -2C18 -12 10 -20 0 -20Z"
          fill="none" stroke="#047857" stroke-width="0.5" opacity="0.3"/>

    <circle cx="0" cy="-2" r="11" fill="white"/>

    <g transform="translate(-5.5, -7)">
      <rect x="1" y="5" width="2.5" height="5" rx="0.5" fill="url(#barGrad1)"/>
      <rect x="4.5" y="2" width="2.5" height="8" rx="0.5" fill="url(#barGrad2)"/>
      <rect x="4.75" y="2.25" width="0.75" height="2.5" rx="0.25" fill="white" opacity="0.3"/>
      <rect x="8" y="3.5" width="2.5" height="6.5" rx="0.5" fill="url(#barGrad3)"/>
    </g>
  </g>
</svg>
