<svg width="600" height="300" viewBox="0 0 600 300" fill="none" xmlns="http://www.w3.org/2000/svg">
  <!-- Horizontal - Dark Mode with Reduced Glow -->

  <defs>
    <!-- Emerald gradient for pin -->
    <linearGradient id="pinGradH" x1="0%" y1="0%" x2="0%" y2="100%">
      <stop offset="0%" stop-color="#34d399"/>
      <stop offset="50%" stop-color="#10b981"/>
      <stop offset="100%" stop-color="#059669"/>
    </linearGradient>

    <!-- Subtle glow behind pin -->
    <radialGradient id="pinGlowH">
      <stop offset="0%" stop-color="#10b981" stop-opacity="0.2"/>
      <stop offset="70%" stop-color="#10b981" stop-opacity="0.05"/>
      <stop offset="100%" stop-color="#10b981" stop-opacity="0"/>
    </radialGradient>

    <!-- Minimal white text glow -->
    <filter id="whiteGlowH">
      <feGaussianBlur stdDeviation="1.5" result="coloredBlur"/>
      <feMerge>
        <feMergeNode in="coloredBlur"/>
        <feMergeNode in="SourceGraphic"/>
      </feMerge>
    </filter>

    <!-- Subtle emerald text glow -->
    <filter id="emeraldGlowH">
      <feGaussianBlur stdDeviation="2" result="coloredBlur"/>
      <feFlood flood-color="#10b981" flood-opacity="0.4"/>
      <feComposite in2="coloredBlur" operator="in"/>
      <feMerge>
        <feMergeNode/>
        <feMergeNode in="SourceGraphic"/>
      </feMerge>
    </filter>

    <!-- Pin shadow -->
    <filter id="pinShadowH">
      <feGaussianBlur in="SourceAlpha" stdDeviation="5"/>
      <feOffset dx="0" dy="3" result="offsetblur"/>
      <feComponentTransfer>
        <feFuncA type="linear" slope="0.3"/>
      </feComponentTransfer>
      <feMerge>
        <feMergeNode/>
        <feMergeNode in="SourceGraphic"/>
      </feMerge>
    </filter>

    <!-- Bar gradients -->
    <linearGradient id="barGrad1H" x1="0%" y1="100%" x2="0%" y2="0%">
      <stop offset="0%" stop-color="#047857"/>
      <stop offset="100%" stop-color="#059669"/>
    </linearGradient>
    <linearGradient id="barGrad2H" x1="0%" y1="100%" x2="0%" y2="0%">
      <stop offset="0%" stop-color="#059669"/>
      <stop offset="100%" stop-color="#10b981"/>
    </linearGradient>
    <linearGradient id="barGrad3H" x1="0%" y1="100%" x2="0%" y2="0%">
      <stop offset="0%" stop-color="#047857"/>
      <stop offset="100%" stop-color="#059669"/>
    </linearGradient>
  </defs>

  <!-- Dark background -->
  <rect width="600" height="300" fill="#0a0a0a" rx="8"/>

  <!-- Subtle background glow -->
  <circle cx="120" cy="150" r="110" fill="url(#pinGlowH)"/>

  <!-- Location Pin -->
  <g id="logo-icon" transform="translate(120, 150)" filter="url(#pinShadowH)">
    <path d="M0 -80C-40 -80 -72 -48 -72 -8C-72 8 -64 24 -48 38L0 96L48 38C64 24 72 8 72 -8C72 -48 40 -80 0 -80Z" fill="url(#pinGradH)"/>
    <path d="M0 -80C-40 -80 -72 -48 -72 -8C-72 8 -64 24 -48 38L0 96L48 38C64 24 72 8 72 -8C72 -48 40 -80 0 -80Z"
          fill="none" stroke="#047857" stroke-width="2" opacity="0.3"/>

    <circle cx="0" cy="-8" r="44" fill="white"/>

    <g transform="translate(-22, -28)">
      <rect x="4" y="20" width="10" height="20" rx="2" fill="url(#barGrad1H)"/>
      <rect x="18" y="8" width="10" height="32" rx="2" fill="url(#barGrad2H)"/>
      <rect x="19" y="9" width="3" height="10" rx="1" fill="white" opacity="0.3"/>
      <rect x="32" y="14" width="10" height="26" rx="2" fill="url(#barGrad3H)"/>
    </g>
  </g>

  <!-- Text -->
  <g transform="translate(240, 130)">
    <text x="0" y="0"
          font-family="system-ui, -apple-system, BlinkMacSystemFont, 'Segoe UI', sans-serif"
          font-size="72"
          font-weight="900"
          fill="#ffffff"
          text-anchor="start"
          letter-spacing="-0.02em"
          filter="url(#whiteGlowH)">
      GMB
    </text>

    <text x="0" y="60"
          font-family="system-ui, -apple-system, BlinkMacSystemFont, 'Segoe UI', sans-serif"
          font-size="54"
          font-weight="800"
          fill="#10b981"
          text-anchor="start"
          letter-spacing="0.05em"
          filter="url(#emeraldGlowH)">
      City
    </text>
  </g>
</svg>
